<svg xmlns="http://www.w3.org/2000/svg" xml:space="preserve" viewBox="52.93 25.03 221.83 271.07"><path fill="#0C3050" d="M259.985 161.766c15.482-55.935-22.52-114.586-79.314-123.988-54.657-9.05-106.829 27.94-115.349 83.606-3.269 21.36.428 41.726 10.426 60.914.537 1.032 1.11 2.046 1.664 3.07 1.735 3.205 1.707 6.373-1.596 8.282-3.435 1.987-6.814.88-8.287-2.791-4.31-10.743-9.705-21.314-12.13-32.504C42.741 99.937 80.394 41.34 138.43 28c67.302-15.47 130.874 31.73 136.035 101.223 1.618 21.79-3.439 42.242-14.074 61.332-1.95 3.502-4.422 5.683-8.428 3.516-4.025-2.177-3.277-5.352-1.644-8.97 3.406-7.55 6.422-15.275 9.666-23.334"/><path fill="#0B2F4F" d="M221.637 188.707c2.802-4.567 5.144-9.01 8.096-13.002 1.247-1.687 4.608-3.85 5.557-3.3 2.066 1.2 4.278 3.896 4.507 6.173.612 6.1.228 12.3.207 18.462-.04 11.819.437 23.677-.4 35.44-.38 5.336-2.407 11.15-5.416 15.57-5.117 7.52-10.37 16.482-17.879 20.382-6.72 3.489-16.562.986-25.027 1.089-3.987.049-7.976.008-12.526.008-.634-15.52-1.662-30.821 8.836-43.83 5.327-6.599 10.926-12.984 16.527-19.356 3.282-3.734 7.813-4.228 11.055-1.506 3.052 2.563 3.377 7.386.505 11.242-5.166 6.938-10.567 13.702-15.637 20.708-1.14 1.576-1.826 3.865-1.763 5.794.043 1.308 1.557 3.26 2.793 3.62 1.015.294 2.983-1.03 3.85-2.16 6.083-7.914 12.08-15.9 17.924-23.992 4.766-6.598 4.568-14.55-1.015-20.605-3.451-3.742-3.406-6.829-.194-10.737"/><path fill="#0A2E4F" d="M110.047 211.71c-.074-4.066 1.19-6.934 4.954-8.114 3.87-1.213 6.688.402 9.163 3.33 6.666 7.884 13.799 15.408 19.988 23.645 2.602 3.464 4.284 8.28 4.645 12.627.712 8.569.21 17.239.21 26.319-12.38 0-24.347.065-36.31-.1-1.21-.017-2.67-1.192-3.555-2.224-5.208-6.065-10.308-12.223-15.389-18.396-3.95-4.8-5.928-10.337-5.926-16.571.004-17.666.033-35.332-.033-52.998-.012-3.353.976-5.962 4.312-7.043 3.373-1.094 4.75 1.494 6.163 3.777 3.064 4.95 5.987 9.99 9.181 14.853 1.746 2.656 1.552 4.686-.442 7.16-7.298 9.049-7.306 15.129-.331 24.628 5.122 6.976 10.272 13.933 15.398 20.907 1.457 1.981 3.115 4.036 5.663 1.95 2.453-2.008 3.07-4.68.92-7.493-5.159-6.747-10.349-13.47-15.416-20.284-1.264-1.7-2.113-3.71-3.195-5.972"/><path fill="#256BD1" d="M198.588 152.735c2.783-1.2 5.205-2.258 8.404-3.656 0 7.79.11 15.154-.122 22.506-.034 1.057-1.512 2.507-2.66 3.026-26.85 12.127-53.764 12.188-80.615.026-1.198-.542-2.587-2.267-2.63-3.487-.252-6.976-.123-13.965-.123-21.842 25.662 11.81 51.325 13.419 77.746 3.427"/><path fill="#256BD2" d="M157.453 120.57c-10.908-2.607-21.376-5.116-31.798-7.808-3.54-.914-5.295-2.99-4.948-7.2.504-6.104.129-12.28.129-19.207 28.72 13.314 57.031 13.498 86.088-.114 0 8.166.09 15.692-.127 23.21-.024.837-1.684 1.886-2.789 2.392-14.637 6.706-29.976 9.811-46.555 8.726"/><path fill="#246BD1" d="M157.43 127.802c17.403.93 33.499-2.448 49.555-10.252 0 8.063.086 15.438-.108 22.806-.025.927-1.351 2.202-2.37 2.665-26.998 12.247-54.06 12.391-81.066.062-1.172-.535-2.44-2.357-2.483-3.62-.241-6.978-.115-13.967-.115-21.713 11.79 5.54 23.667 8.91 36.586 10.052m-25.134-65.66c20.163-5.93 40.069-5.847 59.965-.92 3.795.939 7.557 2.707 10.843 4.848 5.39 3.514 5.498 8.823-.177 11.848-5.47 2.916-11.569 5.165-17.654 6.318-17.527 3.32-35.083 3.093-52.273-2.282a30.8 30.8 0 0 1-9.209-4.75c-4.247-3.213-4.243-7.074-.085-10.371 2.424-1.924 5.455-3.083 8.59-4.691"/><path fill="#286DD2" d="M108.4 286.008c0-1.953.045-3.449-.008-4.94-.116-3.28 1.339-4.948 4.712-4.939 10.622.03 21.25-.158 31.859.197 1.575.052 3.083 2.558 4.576 3.978.172.163.056.64.054.972-.074 17.395 1.705 14.552-13.817 14.724-6.803.075-13.609.018-20.413.011-6.692-.006-6.932-.255-6.964-7.054-.003-.83 0-1.66 0-2.95"/><path fill="#266CD2" d="M199.996 276.145c4.814.002 9.13.005 13.444.004 3.844 0 5.784 1.737 5.75 5.762-.123 14.932 1.483 14.214-13.268 14.105-7.136-.052-14.274-.104-21.408.025-4.382.08-6.295-1.797-6.412-6.209-.365-13.689-.442-13.687 13.43-13.687z"/></svg>