<svg xmlns="http://www.w3.org/2000/svg" xml:space="preserve" viewBox="2.73 5.08 56.33 54.42"><path fill="#233B73" d="M30.07 34.006c4.42.684 8.937-1.036 12.292 2.118l.119 2.1-16.112 3.07-.405 1.185c1.33.725 2.783 2.23 3.968 2.043 5.897-.93 12.935.824 15.99-7.192 1.16-3.04 8.28-2.872 12.043.402-4.768 3.606-9.371 7.096-13.99 10.565-.386.289-1.064.314-1.295.666-3.952 6.027-9.63 4.774-15.586 4.41-7.41-.452-11.236-5.666-16.832-10.002 6.243-4.551 10.874-10.691 19.808-9.365"/><path fill="#223971" d="M15.59 58.794c-1.228.38-2.543.968-3.138.544-3.35-2.387-6.528-5.017-9.717-7.527 4.24-6.683 4.235-6.676 10.1-2.05 1.952 1.54 3.938 3.037 6.042 4.656-1.094 1.481-2.067 2.8-3.286 4.377"/><path fill="#182D69" d="M39.027 9.88c6.408 3.303 8.414 2.795 13.401-2.955.473-.545 2.097.042 3.089-.24.566-.16.934-1.017 1.399-1.57l2.135 2.94c-1.574.957-3.315 1.844-4.859 2.997-2.054 1.534-3.924 3.31-5.93 4.911-1.082.863-2.309 2.226-3.42 2.179s-2.226-1.5-3.213-2.467c-1.227-1.202-2.325-2.536-3.602-4.192-.122-.378.064-.595.285-.69.465-.32.63-.592.715-.912"/><path fill="#0E9DDD" d="M36.617 16.527c.303 4.631.303 8.91.303 13.525h-5.712V16.174c1.656 0 3.381 0 5.409.353"/><path fill="#05195B" d="M31.984 10.834c-2.527 1.357-6.28 1.291-6.186 5.724.011.494-3.145 1.812-3.55 1.42-1.355-1.31-2.128-3.222-3.751-5.963 6.288.121 10.324-.988 12.494-5.603.2-.426 1.47-.349 2.985-.418a33 33 0 0 0 2.845.027c.174.436.349.872.095 1.665a159 159 0 0 1-4.932 3.148"/><path fill="#0C9ADC" d="m53.037 18 5.715-3.299v15.933c-2.004-.32-3.815-.607-5.26-1.284 4.733-2.344 1.72-6.131 2.328-9.005.119-.56-1.802-1.553-2.783-2.346"/><path fill="#0E9CDD" d="M26.06 28.903c-1.846.907-3.627 1.336-5.852 1.871v-8.64l5.917-.303c0 2.41 0 4.502-.064 7.072m21.577.836c-1.904.462-3.507.558-5.436.674v-8.27l5.736-.318c0 2.72 0 5.134-.3 7.914"/><path fill="#0F9EDD" d="M52.964 18.452c1.054.34 2.975 1.333 2.856 1.893-.608 2.874 2.405 6.66-2.372 8.636-.458-3.346-.508-6.71-.484-10.529"/><path fill="#182D69" d="M32.299 10.906c1.186-1.002 2.688-1.932 4.582-2.861.65.284.907.568 1.19 1.441.025.86.022 1.132.02 1.402l-.28.325c-1.794-.007-3.496-.122-5.512-.307m4.471-5.149c-.65.284-1.35.304-2.4.287.55-.209 1.45-.38 2.4-.287"/><path fill="#05195B" d="M38.312 10.793c-.219-.175-.216-.446-.176-1.122.215-.351.392-.297.73-.017.075.547-.09.82-.554 1.139"/></svg>