<svg xmlns="http://www.w3.org/2000/svg" xml:space="preserve" viewBox="9.68 4.02 54.52 55.13"><path fill="#14235E" d="M29.912 54.051c-6.97-2.55-10.039-7.898-9.307-17.528 4.972 5.098 9.474 9.645 13.841 14.318.375.401-.15 1.644-.788 2.793-1.603.338-2.674.378-3.746.417"/><path fill="#25366E" d="m42.123 50.068.76-2.681 10.52-10.123c2.27 5.191-1.323 12.552-8.52 16.495-2.014-.203-3.416-.66-5.02-1.183z"/><path fill="#283870" d="M37.994 17.248c-.754-.397-1.494-1.024-1.84-1.822-.733-1.695-1.523-3.437-1.803-5.236-.288-1.85-.725-4.545.244-5.479.977-.942 4.327-.908 5.298.052.96.949.502 3.635.195 5.48-.379 2.275-1.245 4.469-2.094 7.005"/><path fill="#1D2C66" d="M19.416 18.092c-1.034-1.908-2.352-3.805-2.116-5.485.137-.976 3.362-2.625 4.149-2.167 1.501.873 2.319 2.997 3.296 4.674 1.016 1.744 1.885 3.574 3.106 5.918-.63-.077-1.492-.02-2.222-.304-1.978-.767-3.9-1.68-6.213-2.636"/><path fill="#23336C" d="M57.355 33.49c-2.581-.977-4.891-1.651-7.27-2.346 3.276-1.499 6.112-3.177 9.178-4.02 1.303-.357 3.603.63 4.488 1.76.72.919.44 4.063-.156 4.3-1.79.707-3.953.475-6.24.307"/><path fill="#219CDD" d="M43.952 27.078c2.082 2.01 2.015 3.866-1.136 5.699-4.497.082-8.254.022-12.011-.037-.583-1.24-1.166-2.478-1.307-4.087 2.22-.053 4.055.707 5.76.48 2.95-.391 5.817-1.394 8.727-2.115.007.025-.033.06-.033.06"/><path fill="#1B9CDD" d="m29.996 26.01-.603-1.302c2.434-.925 4.855-2.54 7.307-2.59 2.708-.053 5.445 1.329 8.169 2.085-.302.706-.603 1.411-.91 2.496-.007.379.033.344-.406.143-4.812-.412-9.185-.622-13.557-.832"/><path fill="#219CDD" d="M43.107 34.641c.46 1.15 1.65 2.792 1.261 3.366-2.494 3.686-13.246 1.992-14.966-2.732 4.848-.515 9.276-.574 13.705-.634"/><path fill="#132361" d="M12.997 35.041c-2.806-1.655-4.515-3.649-2.268-6.47 2.109-2.646 4.185-1.973 6.738.01 1.686 1.308 4.349 1.36 6.782 2.032-3.748 1.534-7.3 2.988-11.252 4.428"/><path fill="#152563" d="M56.903 12.308c1.037 6.445-3.488 5.841-7.246 6.254.722-8.22 1.67-9.114 7.246-6.254"/><path fill="#46517E" d="M29.898 54.421c1.086-.41 2.157-.45 3.63-.451.976 1.504 1.551 2.97 2.127 4.436l-7.163.026c.464-1.214.928-2.428 1.406-4.011"/><path fill="#BDE4F6" d="M43.089 34.364c-4.41.337-8.839.396-13.69.528-.056-.572.31-1.215 1.04-2.005 4.123-.088 7.88-.028 12.094.061.485.4.512.769.556 1.416"/><path fill="#D0ECF8" d="M29.884 26.294c4.484-.074 8.857.136 13.661.522-2.47.923-5.338 1.926-8.286 2.317-1.706.227-3.542-.533-5.723-.852-.191-.57.022-1.136.348-1.987"/><path fill="#3B4473" d="M44.79 55.356c-.446 1.235-.936 3.54-1.33 3.523-1.923-.079-5.092 1.653-4.64-2.945 2.287-.505 4.128-.541 5.97-.578"/><path fill="#D4DAE4" d="M44.859 55.027c-1.91.366-3.752.402-5.96.561-.953-2.509-1.223-4.986 2.823-5.526-.234.71-.87 1.415-1.86 2.514 1.605.523 3.007.98 4.778 1.446.341.231.314.454.219 1.005"/></svg>