<svg xmlns="http://www.w3.org/2000/svg" xml:space="preserve" viewBox="1 1 174.02 252"><path fill="#203A72" d="M63 1c16.688 0 33.375 0 50.707.39 5.96 1.12 11.287 1.771 16.588 2.596C146.792 6.554 162.63 10.708 175 23c0 4.025 0 8.05-.329 12.618-6.488 7.792-14.757 11.654-23.536 14.349-23.66 7.264-47.854 9.337-72.585 8.235-16.924-.753-33.583-2.402-49.765-7.299C17.941 47.622 7.102 43.858 1 33c0-2.042 0-4.083.342-6.674 2.794-3.477 4.775-7.059 7.78-9.213C19.977 9.33 32.71 6.336 45.605 4.007 51.395 2.961 57.201 2 63 1M1 163c0-13.02 0-26.042.381-39.531 5.667 1.867 10.76 4.933 16.279 6.387 12.02 3.168 24.159 6.181 36.435 8.01 12.3 1.834 24.824 2.872 37.255 2.916 10.924.039 21.864-1.703 32.783-2.795 17.89-1.79 34.937-6.511 50.867-14.987 0 13.688 0 27.375-.335 41.634-3.723 3.494-6.72 7.144-10.565 9.22-18.876 10.188-39.78 12.755-60.645 13.937-24.434 1.384-48.853.067-72.625-6.799C19.289 177.66 8.173 173.59 1 163m129.492-2.01c.185.445.341.904.559 1.332 1.916 3.765 5.07 5.59 9.105 4.493 3.482-.946 6.23-3.48 5.718-7.434-.51-3.944-3.297-6.877-7.224-7.207-3.825-.322-6.743 1.877-7.71 5.97-.18.763-.575 1.474-.448 2.846"/><path fill="#203A72" d="M1 227c0-13.02 0-26.042.347-39.436 21.973 12.389 46.052 15.901 70.438 17.237 14.012.767 28.168.027 42.193-.966 10.171-.72 20.45-2.153 30.286-4.759 10.487-2.778 20.51-7.31 30.736-11.076 0 13.688 0 27.375-.34 41.623-4.285 3.78-7.797 7.878-12.248 10.061-16.64 8.163-34.705 10.822-52.977 12.334-2.488.205-4.957.649-7.435.982-8.688 0-17.375 0-26.715-.395-5.557-.797-10.457-1.258-15.367-1.589-12.851-.865-25.296-3.584-37.383-8.011C13.769 239.795 5.662 235.722 1 227m142.369 2.927c.423-.68.766-1.432 1.283-2.032 2.841-3.292 1.536-6.659-1.142-8.528-2.192-1.53-6.22-2.566-8.33-1.543-2.68 1.3-6.219 3.783-4.256 8.498 2.143 5.149 6.274 6.65 12.445 3.605"/><path fill="#14A0DE" d="M1 98c0-13.02 0-26.042.371-39.523 25.938 13.507 53.965 16.739 82.325 17.301 14.072.28 28.216-1.497 42.281-2.836C143.282 71.294 159.828 66.814 175 58c0 13.688 0 27.375-.325 41.65-5.287 4.443-9.734 9.457-15.308 11.94-16.564 7.38-34.425 10.451-52.361 11.203-25.86 1.085-51.802.89-76.946-6.822C18.847 112.53 7.624 108.938 1 98m140.877-9.596c-3.363-1.435-6.775-1.676-9.1 1.497-1.258 1.716-2.015 4.232-1.976 6.368.068 3.667 2.866 5.22 6.212 5.711 3.873.568 6.502-.86 8.242-4.564 1.865-3.97-.568-6.098-3.378-9.012"/><path fill="#FFF" d="M130.28 160.672c.085-1.054.48-1.765.66-2.528.967-4.093 3.885-6.292 7.71-5.97 3.927.33 6.713 3.263 7.224 7.207.512 3.953-2.236 6.488-5.718 7.434-4.035 1.097-7.189-.728-9.105-4.493-.218-.428-.374-.887-.77-1.65m12.698 69.321c-5.781 2.98-9.912 1.478-12.055-3.67-1.963-4.716 1.577-7.2 4.256-8.499 2.11-1.023 6.138.013 8.33 1.543 2.678 1.869 3.983 5.236 1.142 8.528-.517.6-.86 1.351-1.673 2.098m-.831-141.317c2.539 2.642 4.972 4.77 3.107 8.74-1.74 3.703-4.369 5.132-8.242 4.564-3.346-.49-6.144-2.044-6.212-5.711-.04-2.136.718-4.652 1.975-6.368 2.326-3.173 5.738-2.932 9.372-1.225"/></svg>