<svg xmlns="http://www.w3.org/2000/svg" xml:space="preserve" viewBox="1 1 266 259"><path fill="#203A72" d="M1 121.467c1.555-1.19 3.309-1.657 4.631-2.68 5.978-4.629 12.223-5.89 18.944-2.927 6.557 2.893 10.12 10.073 9.455 16.667-.534 5.293-6.057 12.077-11.246 13.45-7.795 2.06-15.644-.64-19.758-6.796-.448-.67-.901-1.337-1.69-2.093C1 131.978 1 126.956 1 121.467m266 14.079c-3.557 4.418-5.972 9.292-12.144 10.681-7.567 1.704-16.085-1.51-19.645-8.661-3.298-6.622-.985-15.926 5.037-20.26 8.788-6.328 21.021-2.35 26.41 8.585.342 3.14.342 6.17.342 9.655M129.454 260c-5.97-2.628-10.351-5.963-11.78-12.598-1.882-8.73 4.128-18.302 13.018-19.36 7.142-.851 13.424 1.107 17.228 7.53 3.719 6.28 3.188 12.928-1.152 18.687-1.721 2.284-4.986 3.406-7.658 5.399-3.14.342-6.171.342-9.656.342M137.55 1c3.57 2.266 7.392 3.987 9.67 6.91 5.06 6.498 3.572 17.277-2.278 21.644-7.2 5.375-18.01 4.673-23.525-1.653-6.825-7.828-5.513-22.229 7.474-26.56C131.7 1 134.4 1 137.55 1M159 189.833c-6.356 1.722-12.713 3.444-19.863 5.235-1.574 1.895-2.933 3.69-3.029 5.55-.295 5.725-.108 11.475-.108 17.215-2.05.05-4.1.098-6.676-.102-.689-.47-.9-.625-1.157-.716-.056-6.162-.274-12.328-.096-18.482.085-2.938-1.122-4.284-3.776-4.507-11.446-.96-21.427-5.318-33.11-14.133-3.74 3.884-7.496 7.863-11.338 11.758-5.317 5.392-5.344 5.365-10.728-.583.465-1.783.853-3.07 1.692-3.902 3.706-3.675 7.663-7.105 11.242-10.895.85-.9.587-2.85.836-4.316-8.419-10.408-13.496-22.242-15.036-35.974-7.39 0-14.666 0-22.498-.25-.72-.47-.93-.625-1.188-.716-.05-1.722-.098-3.443.384-5.59 7.089-.426 13.648-.349 20.203-.467 2.41-.044 5.682.126 3.138-4.006.042-.437.084-.874.487-1.674.41-1.016.46-1.67.509-2.322.044-.743.087-1.485.492-2.634.409-1.06.458-1.713.508-2.366.043-.438.087-.875.547-1.708 4.679-7.507 8.977-14.598 13.13-21.774.308-.531-.427-1.665-.676-2.52-4.562-4.743-9.124-9.487-13.671-14.865 1.585-4.346 3.577-5.154 6.572-1.852 2.568 2.83 5.38 5.438 8.088 8.14 4.767 4.754 5.499 4.929 10.945 1.112 9.001-6.307 18.83-10.303 29.792-11.545 2.78-.315 5.433-1.202 3.273-4.989.044-6.01.088-12.019.644-18.492 2.621-.463 4.73-.463 7.47-.463 0 6.894.081 13.165-.035 19.432-.057 3.07 1.004 4.275 4.252 4.673 10.524 1.29 20.136 5.186 28.764 11.39 3.072 2.208 6.146 2.364 9.045-.072 4.399-3.696 8.658-7.557 13.426-11.743l5.593 6.43c-3.772 3.893-7.544 7.786-11.986 11.827-4.215 1.466-4.656 3.344-2.427 6.539 6.307 9.042 11.302 18.658 12.61 29.902.157 1.352 2.684 3.333 4.235 3.454 5.45.426 10.957.283 16.435.122 2.906-.085 4.452.717 4.108 3.894-.143 1.314-.023 2.656-.023 3.985-6.32.057-12.642.115-19.816.184-2.29 1.718-4.691 3.267-5 5.158-1.55 9.498-4.902 18.11-10.584 25.891-4.668 6.392-4.565 6.467 1.153 12.185 2.112 2.113 4.237 4.215 6.335 6.341 4.172 4.227 3.863 5.51-1.853 7.813-3.921-3.806-7.764-7.698-11.822-11.351-.924-.832-2.594-.835-4.696-1.48-1.25.555-1.723 1.373-2.197 2.19 0 0-.385.143-.982-.155-1.07.52-1.544 1.338-2.018 2.155 0 0-.386.15-.96-.17-3.235 1.2-5.897 2.72-8.56 4.24M91.36 97.026c-1.253.893-2.908 1.526-3.687 2.727-2.52 3.888-4.994 7.852-6.995 12.023-9.84 20.51-4.113 42.134 9.207 57.434 11.508 13.219 26.71 18.157 44.098 17.875 22.058-.357 42.198-13.817 50.541-34.375.965-2.377.933-5.16 1.466-8.407.06-.435.118-.87.75-1.39.05-.652.098-1.304.248-2.746.06-1.056.12-2.112.752-3.253.05-.653.098-1.305.248-2.855-.327-3.244-.592-6.496-.99-9.732-1.909-15.523-9.42-27.567-22.335-36.402-15.937-10.903-32.91-12.501-51.554-6.6-.703.502-1.405 1.005-2.683 1.746-.547.21-1.094.419-2.477.251-.478.816-.957 1.633-1.816 2.592l-1.182-.639c-2.662-.343-4.315.297-3.743 3.834-.473.206-.946.411-2.171.214-.665.93-1.329 1.86-2.23 3.389-1.564 1.443-3.128 2.886-5.446 4.314M37.253 202.372c2.529-8.356 20.737-10.414 27.088-1.942 5.446 7.266 3.958 15.706.677 19.957-4.559 5.907-13.518 8.19-20.38 5.468-6.474-2.568-10.837-10.7-9.569-18.22.287-1.704 1.296-3.286 2.184-5.263M47.148 34.94c7.393-2.534 12.944.443 17.388 5.258 4.488 4.861 4.745 11.162 2.235 16.934-2.465 5.671-7.33 8.312-13.81 9.003C39.594 67.56 31.88 54.76 36.026 44.1c1.925-4.948 5.758-7.699 11.121-9.16m160.24 162.178c11.493-5.061 19.54-.702 23.205 5.847 3.535 6.317 2.685 12.377-1.074 17.734-3.457 4.927-9.107 6.643-15.136 6.276-6.49-.396-12.922-5.803-14.278-11.786-1.724-7.603.836-14.134 7.283-18.07M217.803 66c-9.78 0-14.8-2.502-17.018-9.925-2.064-6.9-1.59-12.49 4.813-18.208 5.944-5.307 17.988-4.87 23.275 1.697 4.687 5.823 6.688 14.216-.433 21.588-2.874 2.976-5.902 5.097-10.637 4.848"/><path fill="#203A72" d="M197.356 76.979c-2.11-1.94-3.91-4.009-5.902-6.299-4.768 4.186-9.027 8.047-13.426 11.743-2.9 2.436-5.973 2.28-9.045.071-8.628-6.203-18.24-10.099-28.764-11.389-3.248-.398-4.309-1.603-4.252-4.673.116-6.267.035-12.538.035-19.432h-7.396c-.44-1.157-.44-2.315-.44-3.737H140c0 6.413.109 12.847-.047 19.275-.074 3.075.788 4.208 4.14 4.587 10.62 1.2 20.236 5.246 29.051 11.344 1.103.763 3.785.74 4.774-.078 5.338-4.42 10.373-9.207 14.86-13.274 2.473 2.8 5.074 5.742 7.674 8.684l1.75-.86c-1.512 1.303-3.025 2.605-4.846 4.038m-27.35 159.02c-3.366 1.285-6.342 2.513-9.557 3.84l-4.856-11.25 33.758-13.547 4.968 11.168c-8.195 3.333-16.059 6.532-24.313 9.789M38.975 188.002c-2.208 1.576-3.49 1.424-4.467-.944-4.168-10.097-8.418-20.16-12.72-30.43l10.999-4.847c1.925 4.088 3.985 8.188 5.805 12.392 2.427 5.607 4.504 11.37 7.055 16.917 1.372 2.981 2.051 4.86-2.36 5.024-1.326.049-2.613 1.189-4.312 1.888m54.921-148.03c-5.32 2.004-10.244 3.98-15.557 6.113L73.69 34.709 107 21.474l5.094 10.938c-6.004 2.54-11.904 5.036-18.2 7.56m130.712 146.275c-1.333-1.439-3.442-3.142-3.147-3.858 4.194-10.215 8.714-20.296 13.114-30.317l11.254 4.571c-3.73 9.054-7.46 18.12-11.2 27.181-2.493 6.044-2.648 6.083-10.02 2.423m-46.97-144.983c-7.46-3.033-14.581-5.858-21.9-8.762.874-1.664 1.59-2.924 2.213-4.228 3.213-6.713 3.258-6.853 10.026-4.205 7.787 3.046 15.474 6.347 23.185 9.585 1.013.426 1.906 1.137 2.934 1.763l-4.653 10.742c-3.846-1.573-7.657-3.13-11.805-4.895M109.988 231.1c-1.081 2.989-2.11 5.608-3.297 8.627l-33.468-13.682 4.67-10.178c2.595.762 5.815 1.472 8.854 2.651 6.074 2.358 12.133 4.796 18.019 7.581 2.033.962 3.53 3.054 5.222 5m110.448-94.192a9.9 9.9 0 0 1-.414-4.059c.344-3.177-1.202-3.98-4.108-3.894-5.478.161-10.985.304-16.435-.122-1.551-.121-4.078-2.102-4.235-3.454-1.308-11.244-6.303-20.86-12.61-29.902-2.229-3.195-1.788-5.073 2.12-6.414 7.093 10.082 13.479 20.297 14.464 32.922.086 1.102 2.565 2.815 3.994 2.88 6.753.305 13.527.136 20.785.136 0 3.444.23 6.573-.143 9.629-.11.892-1.94 1.573-3.418 2.278m-92.91-70.775c2.522 3.61-.131 4.497-2.91 4.812-10.962 1.242-20.792 5.238-29.793 11.545-5.446 3.817-6.178 3.642-10.945-1.112-2.708-2.702-5.52-5.31-8.088-8.14-2.995-3.302-4.987-2.494-6.698 1.545-1.198-.202-2.255-.73-3.242-1.222l8.717-8.672 16.29 16.45c11.053-8.856 23.16-13.236 36.669-15.206M30.962 108.12l-9.357-3.666c3.477-7.733 6.862-15.26 10.742-23.188 3.106-4.044 6.174-3.139 9.804-1.22zm159.507 86.544c5.48-2.561 5.79-3.845 1.618-8.072-2.098-2.126-4.223-4.228-6.335-6.34-5.718-5.719-5.82-5.794-1.153-12.186 5.682-7.781 9.034-16.393 10.584-25.891.309-1.89 2.71-3.44 4.54-5.14-.977 5.111-1.817 10.437-3.842 15.266-2.83 6.746-6.546 13.121-10.096 20.072l15.615 15.258-9.083 7.287 1.492 1.802c-1.035-.599-2.07-1.198-3.34-2.056m31.416-115.622c-2.357-2.264-.161-2.987 1.371-3.681 2.63-1.19 5.353-2.178 8.67-3.503l14.103 32.552c-3.38 1.5-6.833 3.03-10.61 4.152 1.188-1.812 2.701-3.213 4.46-4.841-3.54-8.38-7.127-16.865-10.808-25.576z"/><path fill="#203A72" d="M221.941 79.416c2.36-.675 4.775-.977 7.13-1.27l10.808 25.575c-1.759 1.628-3.272 3.03-4.831 4.771-3.71-7.722-7.383-15.782-11.032-23.852-.72-1.595-1.348-3.232-2.075-5.224M31.142 108.451c3.536-9.657 7.253-18.982 11.009-28.406-3.63-1.918-6.698-2.823-9.647.888.68-2.92 1.696-5.907 2.854-9.308L47.18 76.32c-4.493 10.561-8.792 20.77-13.24 30.914-.33.754-1.72 1.043-2.798 1.217m36.288 16.522c3.006 4.11-.265 3.941-2.676 3.985-6.555.118-13.114.041-20.13.042-.457-1.157-.457-2.315-.457-4.005 7.584 0 15.193 0 23.264-.022m68.969 92.942c-.4-5.822-.587-11.572-.292-17.297.096-1.86 1.455-3.655 2.621-5.528.816 7.756 1.246 15.56 1.707 23.928-1.683-.472-2.66-.747-4.037-1.103M82.581 172.08c.059 1.342.321 3.291-.528 4.191-3.579 3.79-7.536 7.22-11.242 10.895-.839.832-1.227 2.12-1.838 3.573-1.075-.59-2.135-1.554-3.317-2.63 5.734-5.488 11.176-10.695 16.925-16.029m-.008-81.992c.565.72 1.3 1.855.992 2.386a553 553 0 0 1-13.056 21.453c1.487-8.973 6-16.654 12.064-23.84m76.794 99.816a45 45 0 0 1 8.01-4.407c-2.286 1.64-4.965 3.058-8.01 4.407m12.407-6.313a4.24 4.24 0 0 1 1.588-2.088c-.163.764-.748 1.339-1.588 2.088m-3 2a4.24 4.24 0 0 1 1.588-2.088c-.163.764-.748 1.339-1.588 2.088M68.6 121.077c.238.532.189 1.185-.147 1.88-.238-.558-.19-1.158.146-1.88m1.001-5c.238.532.189 1.185-.147 1.88-.238-.558-.19-1.158.146-1.88m-25.47 19.198c.295-.169.506-.013.761.382-.205.077-.502-.023-.761-.382m84 82c.295-.169.506-.013.761.382-.205.077-.502-.023-.761-.382"/><path fill="#14A0DE" d="M124.782 162.056c-3.698-.44-7.156-.251-10.144-1.345-12.335-4.516-11.127-4.295-10.2-20.494 19.671 8.156 39.343 7.77 59.539-.239 0 4.718.637 9.274-.266 13.501-.458 2.144-3.392 4.529-5.724 5.371-10.583 3.822-21.507 5.478-33.205 3.206m30.001-61.028c.833.29 1.23.662 1.693.777 3.637.907 7.931 2.357 7.168 6.497-.506 2.748-3.966 6.156-6.81 7.067-14.8 4.747-29.861 4.76-44.877.576a3.7 3.7 0 0 1-.901-.401c-2.97-1.806-7.862-2.74-6.75-7.157.675-2.674 3.958-5.764 6.72-6.66 14.284-4.637 28.824-4.99 43.757-.699"/><path fill="#14A0DE" d="M126.49 140.743c-5.056-1.048-9.8-1.538-14.3-2.862-6.762-1.991-8.19-4.35-8.19-11.386v-8.39c19.751 8.022 39.289 7.897 59 .346v9.711c-.002 6.501-1.362 8.769-7.774 9.725-9.38 1.398-18.87 2.063-28.736 2.856"/></svg>