<svg xmlns="http://www.w3.org/2000/svg" xml:space="preserve" viewBox="1 1 310 248.93"><path fill="#203A72" d="M1 170.46c10.445-4.009 21.243-2.325 31.878-2.382 37.432-.2 74.865-.078 112.299-.078 6.413 0 10.636 3.366 10.823 8.626.193 5.45-4.365 10.05-10.514 10.338-3.96.186-7.934.035-12.486.035v12.052c0 13.975.202 27.955-.17 41.92-.075 2.804-2.334 5.55-3.708 8.676-33.81.353-67.497.353-101.76-.006-1.505-2.645-3.184-4.914-3.236-7.22-.27-11.945-.126-23.9-.126-35.85v-19.372c-8.208-.859-16.819 2.09-23-5.199zm310 12.071c-1.767 1.46-3.534 2.451-5.593 2.997.336-2.948 1.508-5.45 1.513-7.953.105-54.649.081-109.298.078-163.946 0-7.309-1.346-8.628-8.79-8.628C226.066 5 153.923 4.967 81.78 5.085c-4.205.007-8.408 1.249-12.612 1.916 1.207-1.775 2.413-3.549 3.727-5.662C152.25 1 231.5 1 311 1z"/><path fill="#203A72" d="M68.968 7.383c4.403-1.05 8.606-2.29 12.811-2.298 72.143-.118 144.286-.086 216.43-.084 7.443 0 8.789 1.32 8.79 8.628.002 54.648.026 109.297-.079 163.946-.005 2.504-1.177 5.005-1.862 7.883-1.954.764-3.85 1.49-5.748 1.493-43.42.064-86.84.05-130.26.039-.947 0-1.894-.152-2.01-.162 0-5.212 0-10.104.52-15.412 39.884-.416 79.245-.415 118.607-.42 1.493 0 3.299.44 4.383-.243.892-.56.927-2.482 1.342-3.801V19.31H88.084v22.184H68.77c0-11.01 0-22.37.199-34.111M55.318 107.02c3.691 1.263 6.963 2.595 10.277 3.81 9.858 3.615 19.456 2.624 28.873-1.68 5.736-2.621 9.97-1.717 14.835 2.61 6.23 5.54 9.104 12.686 9.6 20.692.45 7.28.095 14.61.095 22.232H38.052c0-9.173-1.014-18.573.28-27.645 1.339-9.388 7.542-16.238 16.986-20.018"/><path fill="#14A0DE" d="M139 59.497v66.18h119.736c-1.728-2.11-3.577-3.8-4.657-5.887-.7-1.355-.979-3.992-.181-4.79 1.018-1.018 3.351-1.124 5.042-.936 1.296.143 2.65 1.164 3.673 2.121 3.04 2.844 5.944 5.835 8.874 8.795 3.388 3.424 3.603 6.292.173 9.781-3.584 3.645-7.352 7.177-11.437 10.224-1.381 1.03-3.979.429-6.02.573.05-2.122-.472-4.494.317-6.292.726-1.655 2.86-2.693 4.018-5.266h-5.005c-38.828 0-77.656-.083-116.483.105-4.847.023-6.206-1.368-6.156-6.18.238-22.494.106-44.993.106-67.49v-5.439c-2.428 1.993-4.084 3.999-6.208 4.882-1.58.657-4.845.518-5.431-.442-.922-1.51-1.075-4.71-.05-5.966 3.352-4.107 7.076-8.072 11.304-11.224 1.713-1.276 6.04-1.43 7.538-.16 4.366 3.7 8.057 8.254 11.662 12.754.898 1.121.473 3.302.656 4.996-1.97-.001-4.181.56-5.845-.154-1.865-.8-3.234-2.754-5.265-4.616a168 168 0 0 0-.361 4.43"/><path fill="#203A72" d="M85 99.833c-13.114 4.796-32.353-5.802-30.996-21.86.231-2.739.51-5.474 1.296-8.654.906-.746 1.383-.981 1.647-1.363 7.082-10.25 19.56-13.683 29.544-8.206 9.696 5.32 16.246 18.632 9.634 30.11-.703 1.222-.738 2.827-1.082 4.254-.875.909-1.75 1.817-3.332 2.445C89 97.464 87 98.65 85 99.833"/><path fill="#14A0DE" d="M244 108.956v8.726h-19v-17.42c0-11.824.099-23.65-.052-35.473-.055-4.311 1.709-5.837 5.935-5.85C244 58.9 244 58.794 244 71.99zM192 99v18.7h-18.98c0-14.444-.027-28.728.054-43.011.006-1.053.744-2.994 1.213-3.016 5.512-.263 11.04-.332 16.552-.11.439.017 1.09 2.561 1.109 3.939.108 7.664.052 15.33.052 23.496m8.288 18.922c-.744-3.625-1.197-7.188-1.251-10.757-.12-7.823.064-15.65-.079-23.472-.072-3.961 1.42-5.779 5.52-5.727 14.756.186 13.572-1.683 13.527 13.165-.027 8.783-.005 17.567-.005 26.85-6.021 0-11.63 0-17.712-.058m-49.899-34.915c4.123-.005 7.787.102 11.442-.039 2.906-.112 4.25.85 4.213 3.979-.12 10.127-.045 20.257-.045 30.718H147.04c0-10.446-.089-20.87.127-31.288.023-1.14 1.797-2.244 3.222-3.37"/><path fill="#203A72" d="M291.43 166.973c.047 1.298.012 3.22-.88 3.78-1.084.682-2.89.243-4.383.243-39.362.005-78.723.004-118.542.003-.925-1.12-1.392-2.242-2.127-4.004 42.341 0 83.906 0 125.933-.022M95.36 93.975c.027-1.288.062-2.893.765-4.114 6.612-11.48.062-24.792-9.634-30.11-9.985-5.478-22.462-2.045-29.544 8.205-.264.382-.741.617-1.45.982 1.79-9.25 8.926-13.948 17.102-15.513 15.96-3.057 29.24 5.813 30.293 22.99.41 6.69-2.257 12.669-7.531 17.56m-9.999 5.928c1.639-1.254 3.64-2.439 6.024-3.403-1.632 1.304-3.647 2.388-6.024 3.403"/></svg>