<?xml version="1.0" encoding="utf-8"?>
<!-- Generator: Adobe Illustrator 22.1.0, SVG Export Plug-In . SVG Version: 6.00 Build 0)  -->
<svg version="1.1" id="Layer_1" xmlns="http://www.w3.org/2000/svg" xmlns:xlink="http://www.w3.org/1999/xlink" x="0px" y="0px"
	 viewBox="0 0 239.3 103.3" style="enable-background:new 0 0 239.3 103.3;" xml:space="preserve">
<style type="text/css">
	.st0{fill:#F08B1D;}
	.st1{fill:#6D6E71;}
	.st2{fill:#FFFFFF;}
</style>
<g>
	<path class="st0" d="M46.2,62.5c0-0.1-0.4-5.5-2.9-11.8c-2.5-6.3-6.1-9.9-6.2-10c-0.6-0.6-1.4-0.9-2.1-0.9v0h0h0v0
		c-0.8,0-1.5,0.3-2.1,0.9c-0.1,0.1-3.6,3.7-6.2,10c-2.5,6.3-2.9,11.7-2.9,11.8l0,0.7v0v0v0l0,0c0,3.4,5.6,3.6,5.7-0.5l0-0.2l0.1-0.8
		c0,0,0.1-1,0.3-2.6c0.3-1.6,0.8-3.8,1.6-5.9c0.9-2.1,1.9-3.8,2.7-4.9c0.3-0.4,1.3-0.4,1.5,0c0.8,1.1,1.8,2.8,2.7,4.9
		c0.9,2.1,1.4,4.3,1.6,5.9c0.3,1.6,0.3,2.6,0.3,2.6l0.1,0.8l0,0.2c0.1,4.1,5.6,4,5.7,0.5l0,0v0v0v0L46.2,62.5L46.2,62.5z"/>
	<path class="st0" d="M65.2,32c-0.1,0-5.3-1.3-12-0.9c-6.7,0.5-11.2,2.8-11.3,2.8c-0.7,0.4-1.3,1-1.5,1.8v0c0,0,0,0,0,0c0,0,0,0,0,0
		l0,0c-0.2,0.7-0.2,1.6,0.2,2.3c0.1,0.1,2.4,4.7,7.5,9c5.1,4.4,10.1,6.4,10.2,6.4l0.6,0.2l0,0h0l0,0l0,0c3.2,1,5.1-4.2,1.2-5.6
		L60,48l-0.7-0.3c0,0-0.9-0.4-2.4-1.2c-1.4-0.8-3.3-1.9-5.1-3.4c-1.7-1.5-3-3-3.8-4.1c-0.3-0.4,0-1.3,0.5-1.5
		c1.3-0.4,3.2-0.9,5.5-1.1c2.3-0.2,4.5,0,6.1,0.3c1.6,0.2,2.6,0.5,2.6,0.5l0.8,0.2l0.2,0c3.9,1.2,5.5-4.2,2.3-5.3l0,0l0,0h0l0,0
		L65.2,32L65.2,32z"/>
	<path class="st0" d="M42.4,4.3c-0.1,0.1-2.9,4.7-4.5,11.3C36.2,22.2,37,27.2,37,27.4c0.1,0.8,0.6,1.5,1.2,2c0,0,0,0,0,0
		c0,0,0,0,0,0l0,0c0.6,0.4,1.4,0.7,2.2,0.5c0.1,0,5.1-0.8,10.8-4.4c5.7-3.6,9.1-7.8,9.2-7.9l0.4-0.6l0,0h0l0,0l0,0
		c2-2.8-2.4-6.2-4.9-2.9l-0.1,0.1l-0.5,0.6c0,0-0.6,0.8-1.8,1.9c-1.2,1.1-2.8,2.6-4.8,3.8c-1.9,1.2-3.7,2-5.1,2.4
		c-0.5,0.2-1.3-0.4-1.2-0.9c0-1.4,0.1-3.4,0.7-5.6c0.5-2.2,1.4-4.3,2.1-5.8c0.7-1.5,1.3-2.4,1.3-2.4L47,7.7l0.1-0.2
		c2.3-3.4-2.2-6.6-4.3-3.8v0l0,0v0l0,0L42.4,4.3L42.4,4.3z"/>
	<path class="st0" d="M9.3,17.7c0.1,0.1,3.5,4.3,9.2,7.9c5.7,3.6,10.7,4.4,10.8,4.4c0.8,0.1,1.6-0.1,2.2-0.5l0,0c0,0,0,0,0,0
		c0,0,0,0,0,0v0c0.6-0.5,1.1-1.2,1.2-2c0-0.1,0.8-5.2-0.8-11.8c-1.6-6.6-4.5-11.2-4.5-11.3L27,3.8l0,0c0,0,0,0,0,0l0,0l0,0
		c-2-2.8-6.6,0.4-4.3,3.8l0.1,0.2l0.4,0.7c0,0,0.5,0.9,1.3,2.4c0.7,1.5,1.6,3.5,2.1,5.8c0.5,2.2,0.7,4.2,0.7,5.6
		c0,0.5-0.8,1.1-1.2,0.9c-1.3-0.4-3.1-1.2-5.1-2.4c-1.9-1.2-3.6-2.7-4.8-3.8c-1.2-1.1-1.8-1.9-1.8-1.9l-0.5-0.6l-0.1-0.1
		c-2.5-3.3-6.9,0.1-4.9,2.9l0,0l0,0h0l0,0L9.3,17.7L9.3,17.7z"/>
	<path class="st0" d="M11.6,53.6c0.1,0,5.1-2.1,10.2-6.4c5.1-4.4,7.5-8.9,7.5-9c0.4-0.7,0.4-1.6,0.2-2.3h0c0,0,0,0,0,0c0,0,0,0,0,0
		h0c-0.2-0.7-0.8-1.4-1.5-1.8c-0.1-0.1-4.6-2.4-11.3-2.8c-6.7-0.5-11.9,0.9-12,0.9l-0.7,0.2l0,0h0l0,0l0,0c-3.2,1.1-1.6,6.5,2.3,5.3
		l0.2,0l0.8-0.2c0,0,1-0.3,2.6-0.5c1.6-0.2,3.8-0.4,6.1-0.3c2.3,0.2,4.2,0.6,5.5,1.1c0.5,0.2,0.8,1.1,0.5,1.5
		c-0.8,1.1-2.1,2.6-3.8,4.1c-1.7,1.5-3.6,2.6-5.1,3.4c-1.4,0.8-2.4,1.1-2.4,1.1l-0.7,0.3l-0.2,0.1c-3.8,1.4-2,6.6,1.2,5.6l0,0l0,0
		l0,0L11.6,53.6L11.6,53.6z"/>
	<path class="st1" d="M121.2,41.5c0.1,14-6.6,19.3-17.7,19.3c-11,0-17.7-5.3-17.6-19.3V4.3h-5.7v38.5c0,12.4,6.7,22.9,23.3,22.9
		c16.8,0,23.4-10.5,23.4-22.9V4.3h-5.7V41.5L121.2,41.5z"/>
	<path class="st1" d="M162.3,60.8c-15.9,0-22.7-13.3-22.7-26.4s6.7-26.4,22.7-26.4c8.7,0,16.4,5.3,18.4,14.5h5.7
		C184.9,9.8,173.7,3,162.3,3c-19,0-28.4,14.9-28.4,31.3c0,16.4,9.4,31.3,28.4,31.3c13.2,0,22.3-8.3,24.6-21.5h-5.8
		C179.3,53.6,172.5,60.8,162.3,60.8"/>
	<path class="st1" d="M225.3,32.8v-0.2c5.5-1.5,8.3-6.5,8.3-12c0-10.5-10.4-16.3-19.8-16.3c-11.4,0-19,7.3-20.2,18.2h11.3
		c0.6-4.9,3.7-8.3,9-8.3c4.4,0,8.3,2.9,8.3,7.8c0,6.7-7.4,7.7-12.5,7.3v8.4c5.8,0,13.6-0.2,13.6,8.8c0,5.6-4.2,9.3-9.6,9.3
		c-6.9,0-10.1-5.2-10.4-11.6H192c-0.2,13.5,8.7,21.5,21.9,21.5c11.5,0,21.9-7,21.9-19.4C235.8,39.7,231.8,34.3,225.3,32.8"/>
	<path class="st2" d="M203.3,44.1H192v0L203.3,44.1C203.3,44.1,203.3,44.1,203.3,44.1"/>
	<path class="st1" d="M6.2,92.4c0,4,2.1,7.3,7.5,7.3c5.4,0,7.5-3.4,7.5-7.3V80.1h-1.8V92c0,4.5-2.1,6.2-5.7,6.2
		c-3.5,0-5.7-1.7-5.6-6.2V80.1H6.2V92.4L6.2,92.4z M40.9,85.9c-0.5-4.1-4.1-6.2-7.7-6.2c-6.1,0-9.1,4.8-9.1,10c0,5.3,3,10,9.1,10
		c4.5,0,7.5-3,8-7.7h-1.8c-0.4,3.4-2.6,6.2-6.2,6.2c-5.1,0-7.3-4.3-7.3-8.5s2.2-8.5,7.3-8.5c2.8,0,5.3,1.7,5.9,4.7H40.9L40.9,85.9z
		 M67.4,85.9c-0.5-4.1-4.1-6.2-7.7-6.2c-6.1,0-9.1,4.8-9.1,10c0,5.3,3,10,9.1,10c4.5,0,7.5-3,8-7.7h-1.8c-0.4,3.4-2.6,6.2-6.2,6.2
		c-5.1,0-7.3-4.3-7.3-8.5s2.2-8.5,7.3-8.5c2.8,0,5.3,1.7,5.9,4.7H67.4L67.4,85.9z M81.4,85.4h-1.7v7.3c0,2.8-1.3,5.6-4.2,5.6
		c-2.7,0-3.6-1.3-3.7-3.8v-9.1h-1.7v9c0,3.2,1.4,5.3,4.9,5.3c2.1,0,3.9-1.1,4.8-2.9h0.1v2.5h1.6V85.4L81.4,85.4z M84.6,99.4h1.7
		v-7.4c0-2.9,2.1-5.2,5.2-5v-1.7c-2.5-0.1-4.4,1.2-5.3,3.5h-0.1v-3.3h-1.6V99.4L84.6,99.4z M102,94c0,2.7-2.3,4.4-4.9,4.4
		c-1.6,0-3.1-1.1-3.1-2.8c0-2.7,3.6-2.7,6.5-3.2c0.5-0.1,1.2-0.2,1.4-0.6h0.1V94L102,94z M94.7,89.7c0.1-2.3,1.6-3.2,3.7-3.2
		c2,0,3.6,0.6,3.6,2.9c0,1.5-0.8,1.7-2.2,1.9c-3.7,0.4-7.5,0.6-7.5,4.5c0,2.8,2.1,4.1,4.7,4.1c2.7,0,3.9-1,5.1-2.8h0.1
		c0,1.5,0.3,2.4,2,2.4c0.5,0,0.7,0,1.1-0.1v-1.4c-0.1,0.1-0.4,0.1-0.5,0.1c-0.7,0-1-0.4-1-1v-7.4c0-3.7-2.7-4.5-5.1-4.5
		c-3.2,0-5.5,1.4-5.6,4.7H94.7L94.7,89.7z M109.8,81.2h-1.7v4.2h-2.4v1.4h2.4v9.5c0,2.4,0.8,3.1,3,3.1c0.5,0,1-0.1,1.5-0.1V98
		c-0.5,0.1-1,0.1-1.5,0.1c-1.2-0.1-1.4-0.7-1.4-1.8v-9.4h2.8v-1.4h-2.8V81.2L109.8,81.2z M115.2,99.4h1.7V85.4h-1.7V99.4L115.2,99.4
		z M115.2,82.8h1.7v-2.7h-1.7V82.8L115.2,82.8z M126,85c-4.3,0-6.6,3.4-6.6,7.4s2.3,7.4,6.6,7.4c4.3,0,6.6-3.4,6.6-7.4
		S130.3,85,126,85L126,85z M126,86.5c3.3,0,4.9,3,4.9,5.9s-1.6,5.9-4.9,5.9c-3.3,0-4.9-3-4.9-5.9S122.8,86.5,126,86.5L126,86.5z
		 M135.1,99.4h1.7v-8.1c0.1-2.7,1.7-4.8,4.4-4.8c2.8,0,3.5,1.8,3.5,4.2v8.7h1.7v-9c0-3.3-1.2-5.4-5.1-5.4c-2,0-3.8,1.1-4.5,2.8h-0.1
		v-2.4h-1.7V99.4L135.1,99.4z M173.4,85.9c-0.5-4.1-4.1-6.2-7.7-6.2c-6.1,0-9.1,4.8-9.1,10c0,5.3,3,10,9.1,10c4.5,0,7.5-3,8-7.7
		h-1.8c-0.4,3.4-2.6,6.2-6.2,6.2c-5.1,0-7.3-4.3-7.3-8.5s2.2-8.5,7.3-8.5c2.8,0,5.3,1.7,5.9,4.7H173.4L173.4,85.9z M187.9,92.9
		c0.1-3.9-1.6-7.8-6.1-7.8c-4.4,0-6.3,3.7-6.3,7.4c0,4,1.9,7.4,6.3,7.4c3.5,0,5.3-1.8,6.1-5h-1.7c-0.5,2.1-1.9,3.6-4.4,3.6
		c-3.3,0-4.6-3-4.6-5.5H187.9L187.9,92.9z M177.2,91.4c0.3-2.5,1.8-5,4.6-5c2.8,0,4.3,2.4,4.4,5H177.2L177.2,91.4z M190.1,99.4h1.7
		v-8.1c0.1-2.7,1.7-4.8,4.4-4.8c2.8,0,3.5,1.8,3.5,4.2v8.7h1.7v-9c0-3.3-1.2-5.4-5.1-5.4c-2,0-3.8,1.1-4.5,2.8h-0.1v-2.4h-1.7V99.4
		L190.1,99.4z M207.4,81.2h-1.7v4.2h-2.4v1.4h2.4v9.5c0,2.4,0.8,3.1,3,3.1c0.5,0,1-0.1,1.5-0.1V98c-0.5,0.1-1,0.1-1.5,0.1
		c-1.2-0.1-1.4-0.7-1.4-1.8v-9.4h2.8v-1.4h-2.8V81.2L207.4,81.2z M224.4,92.9c0.1-3.9-1.6-7.8-6.1-7.8c-4.4,0-6.3,3.7-6.3,7.4
		c0,4,1.9,7.4,6.3,7.4c3.5,0,5.3-1.8,6.1-5h-1.7c-0.5,2.1-1.9,3.6-4.4,3.6c-3.3,0-4.6-3-4.6-5.5H224.4L224.4,92.9z M213.7,91.4
		c0.3-2.5,1.8-5,4.6-5c2.8,0,4.3,2.4,4.4,5H213.7L213.7,91.4z M226.7,99.4h1.7v-7.4c0-2.9,2.1-5.2,5.2-5v-1.7
		c-2.5-0.1-4.4,1.2-5.3,3.5h-0.1v-3.3h-1.6V99.4L226.7,99.4z"/>
</g>
</svg>
