<svg xmlns="http://www.w3.org/2000/svg" xml:space="preserve" viewBox="2.27 2.6 65.47 63.23"><path d="M46.2 62.5c0-.1-.4-5.5-2.9-11.8s-6.1-9.9-6.2-10c-.6-.6-1.4-.9-2.1-.9q-1.2 0-2.1.9c-.1.1-3.6 3.7-6.2 10-2.5 6.3-2.9 11.7-2.9 11.8v.7c0 3.4 5.6 3.6 5.7-.5v-.2l.1-.8s.1-1 .3-2.6c.3-1.6.8-3.8 1.6-5.9.9-2.1 1.9-3.8 2.7-4.9.3-.4 1.3-.4 1.5 0 .8 1.1 1.8 2.8 2.7 4.9s1.4 4.3 1.6 5.9c.3 1.6.3 2.6.3 2.6l.1.8v.2c.1 4.1 5.6 4 5.7.5zm19-30.5c-.1 0-5.3-1.3-12-.9-6.7.5-11.2 2.8-11.3 2.8-.7.4-1.3 1-1.5 1.8-.2.7-.2 1.6.2 2.3.1.1 2.4 4.7 7.5 9 5.1 4.4 10.1 6.4 10.2 6.4l.6.2c3.2 1 5.1-4.2 1.2-5.6H60l-.7-.3s-.9-.4-2.4-1.2c-1.4-.8-3.3-1.9-5.1-3.4-1.7-1.5-3-3-3.8-4.1-.3-.4 0-1.3.5-1.5 1.3-.4 3.2-.9 5.5-1.1s4.5 0 6.1.3c1.6.2 2.6.5 2.6.5l.8.2h.2c3.9 1.2 5.5-4.2 2.3-5.3zM42.4 4.3c-.1.1-2.9 4.7-4.5 11.3-1.7 6.6-.9 11.6-.9 11.8.1.8.6 1.5 1.2 2 .6.4 1.4.7 2.2.5.1 0 5.1-.8 10.8-4.4s9.1-7.8 9.2-7.9l.4-.6c2-2.8-2.4-6.2-4.9-2.9l-.1.1-.5.6s-.6.8-1.8 1.9-2.8 2.6-4.8 3.8c-1.9 1.2-3.7 2-5.1 2.4-.5.2-1.3-.4-1.2-.9 0-1.4.1-3.4.7-5.6.5-2.2 1.4-4.3 2.1-5.8s1.3-2.4 1.3-2.4l.5-.5.1-.2c2.3-3.4-2.2-6.6-4.3-3.8zM9.3 17.7c.1.1 3.5 4.3 9.2 7.9S29.2 30 29.3 30c.8.1 1.6-.1 2.2-.5.6-.5 1.1-1.2 1.2-2 0-.1.8-5.2-.8-11.8S27.4 4.5 27.4 4.4l-.4-.6c-2-2.8-6.6.4-4.3 3.8l.1.2.4.7s.5.9 1.3 2.4c.7 1.5 1.6 3.5 2.1 5.8.5 2.2.7 4.2.7 5.6 0 .5-.8 1.1-1.2.9-1.3-.4-3.1-1.2-5.1-2.4-1.9-1.2-3.6-2.7-4.8-3.8s-1.8-1.9-1.8-1.9l-.5-.6-.1-.1c-2.5-3.3-6.9.1-4.9 2.9zm2.3 35.9c.1 0 5.1-2.1 10.2-6.4 5.1-4.4 7.5-8.9 7.5-9 .4-.7.4-1.6.2-2.3s-.8-1.4-1.5-1.8c-.1-.1-4.6-2.4-11.3-2.8-6.7-.5-11.9.9-12 .9l-.7.2c-3.2 1.1-1.6 6.5 2.3 5.3h.2l.8-.2s1-.3 2.6-.5 3.8-.4 6.1-.3c2.3.2 4.2.6 5.5 1.1.5.2.8 1.1.5 1.5-.8 1.1-2.1 2.6-3.8 4.1s-3.6 2.6-5.1 3.4c-1.4.8-2.4 1.1-2.4 1.1l-.7.3-.2.1c-3.8 1.4-2 6.6 1.2 5.6z" style="fill:#f08b1d"/></svg>