<svg version="1.1" id="Layer_1" xmlns="http://www.w3.org/2000/svg" x="0" y="0" xml:space="preserve" viewBox="2.27 2.6 233.55 97.32"><style>.st1{fill:#6d6e71}</style><path d="M46.2 62.5c0-.1-.4-5.5-2.9-11.8s-6.1-9.9-6.2-10c-.6-.6-1.4-.9-2.1-.9q-1.2 0-2.1.9c-.1.1-3.6 3.7-6.2 10-2.5 6.3-2.9 11.7-2.9 11.8v.7c0 3.4 5.6 3.6 5.7-.5v-.2l.1-.8s.1-1 .3-2.6c.3-1.6.8-3.8 1.6-5.9.9-2.1 1.9-3.8 2.7-4.9.3-.4 1.3-.4 1.5 0 .8 1.1 1.8 2.8 2.7 4.9s1.4 4.3 1.6 5.9c.3 1.6.3 2.6.3 2.6l.1.8v.2c.1 4.1 5.6 4 5.7.5zm19-30.5c-.1 0-5.3-1.3-12-.9-6.7.5-11.2 2.8-11.3 2.8-.7.4-1.3 1-1.5 1.8-.2.7-.2 1.6.2 2.3.1.1 2.4 4.7 7.5 9 5.1 4.4 10.1 6.4 10.2 6.4l.6.2c3.2 1 5.1-4.2 1.2-5.6H60l-.7-.3s-.9-.4-2.4-1.2c-1.4-.8-3.3-1.9-5.1-3.4-1.7-1.5-3-3-3.8-4.1-.3-.4 0-1.3.5-1.5 1.3-.4 3.2-.9 5.5-1.1s4.5 0 6.1.3c1.6.2 2.6.5 2.6.5l.8.2h.2c3.9 1.2 5.5-4.2 2.3-5.3zM42.4 4.3c-.1.1-2.9 4.7-4.5 11.3-1.7 6.6-.9 11.6-.9 11.8.1.8.6 1.5 1.2 2 .6.4 1.4.7 2.2.5.1 0 5.1-.8 10.8-4.4s9.1-7.8 9.2-7.9l.4-.6c2-2.8-2.4-6.2-4.9-2.9l-.1.1-.5.6s-.6.8-1.8 1.9-2.8 2.6-4.8 3.8c-1.9 1.2-3.7 2-5.1 2.4-.5.2-1.3-.4-1.2-.9 0-1.4.1-3.4.7-5.6.5-2.2 1.4-4.3 2.1-5.8s1.3-2.4 1.3-2.4l.5-.5.1-.2c2.3-3.4-2.2-6.6-4.3-3.8zM9.3 17.7c.1.1 3.5 4.3 9.2 7.9S29.2 30 29.3 30c.8.1 1.6-.1 2.2-.5.6-.5 1.1-1.2 1.2-2 0-.1.8-5.2-.8-11.8S27.4 4.5 27.4 4.4l-.4-.6c-2-2.8-6.6.4-4.3 3.8l.1.2.4.7s.5.9 1.3 2.4c.7 1.5 1.6 3.5 2.1 5.8.5 2.2.7 4.2.7 5.6 0 .5-.8 1.1-1.2.9-1.3-.4-3.1-1.2-5.1-2.4-1.9-1.2-3.6-2.7-4.8-3.8s-1.8-1.9-1.8-1.9l-.5-.6-.1-.1c-2.5-3.3-6.9.1-4.9 2.9zm2.3 35.9c.1 0 5.1-2.1 10.2-6.4 5.1-4.4 7.5-8.9 7.5-9 .4-.7.4-1.6.2-2.3s-.8-1.4-1.5-1.8c-.1-.1-4.6-2.4-11.3-2.8-6.7-.5-11.9.9-12 .9l-.7.2c-3.2 1.1-1.6 6.5 2.3 5.3h.2l.8-.2s1-.3 2.6-.5 3.8-.4 6.1-.3c2.3.2 4.2.6 5.5 1.1.5.2.8 1.1.5 1.5-.8 1.1-2.1 2.6-3.8 4.1s-3.6 2.6-5.1 3.4c-1.4.8-2.4 1.1-2.4 1.1l-.7.3-.2.1c-3.8 1.4-2 6.6 1.2 5.6z" style="fill:#f08b1d"/><path class="st1" d="M121.2 41.5c.1 14-6.6 19.3-17.7 19.3-11 0-17.7-5.3-17.6-19.3V4.3h-5.7v38.5c0 12.4 6.7 22.9 23.3 22.9 16.8 0 23.4-10.5 23.4-22.9V4.3h-5.7zm41.1 19.3c-15.9 0-22.7-13.3-22.7-26.4S146.3 8 162.3 8c8.7 0 16.4 5.3 18.4 14.5h5.7C184.9 9.8 173.7 3 162.3 3c-19 0-28.4 14.9-28.4 31.3s9.4 31.3 28.4 31.3c13.2 0 22.3-8.3 24.6-21.5h-5.8c-1.8 9.5-8.6 16.7-18.8 16.7m63-28v-.2c5.5-1.5 8.3-6.5 8.3-12 0-10.5-10.4-16.3-19.8-16.3-11.4 0-19 7.3-20.2 18.2h11.3c.6-4.9 3.7-8.3 9-8.3 4.4 0 8.3 2.9 8.3 7.8 0 6.7-7.4 7.7-12.5 7.3v8.4c5.8 0 13.6-.2 13.6 8.8 0 5.6-4.2 9.3-9.6 9.3-6.9 0-10.1-5.2-10.4-11.6H192c-.2 13.5 8.7 21.5 21.9 21.5 11.5 0 21.9-7 21.9-19.4 0-6.6-4-12-10.5-13.5"/><path d="M203.3 44.1H192z" style="fill:#fff"/><path class="st1" d="M6.2 92.4c0 4 2.1 7.3 7.5 7.3s7.5-3.4 7.5-7.3V80.1h-1.8V92c0 4.5-2.1 6.2-5.7 6.2-3.5 0-5.7-1.7-5.6-6.2V80.1H6.2zm34.7-6.5c-.5-4.1-4.1-6.2-7.7-6.2-6.1 0-9.1 4.8-9.1 10 0 5.3 3 10 9.1 10 4.5 0 7.5-3 8-7.7h-1.8c-.4 3.4-2.6 6.2-6.2 6.2-5.1 0-7.3-4.3-7.3-8.5s2.2-8.5 7.3-8.5c2.8 0 5.3 1.7 5.9 4.7zm26.5 0c-.5-4.1-4.1-6.2-7.7-6.2-6.1 0-9.1 4.8-9.1 10 0 5.3 3 10 9.1 10 4.5 0 7.5-3 8-7.7h-1.8c-.4 3.4-2.6 6.2-6.2 6.2-5.1 0-7.3-4.3-7.3-8.5s2.2-8.5 7.3-8.5c2.8 0 5.3 1.7 5.9 4.7zm14-.5h-1.7v7.3c0 2.8-1.3 5.6-4.2 5.6-2.7 0-3.6-1.3-3.7-3.8v-9.1h-1.7v9c0 3.2 1.4 5.3 4.9 5.3 2.1 0 3.9-1.1 4.8-2.9h.1v2.5h1.6V85.4zm3.2 14h1.7V92c0-2.9 2.1-5.2 5.2-5v-1.7c-2.5-.1-4.4 1.2-5.3 3.5h-.1v-3.3h-1.6v13.9zM102 94c0 2.7-2.3 4.4-4.9 4.4-1.6 0-3.1-1.1-3.1-2.8 0-2.7 3.6-2.7 6.5-3.2.5-.1 1.2-.2 1.4-.6h.1zm-7.3-4.3c.1-2.3 1.6-3.2 3.7-3.2 2 0 3.6.6 3.6 2.9 0 1.5-.8 1.7-2.2 1.9-3.7.4-7.5.6-7.5 4.5 0 2.8 2.1 4.1 4.7 4.1 2.7 0 3.9-1 5.1-2.8h.1c0 1.5.3 2.4 2 2.4.5 0 .7 0 1.1-.1V98c-.1.1-.4.1-.5.1-.7 0-1-.4-1-1v-7.4c0-3.7-2.7-4.5-5.1-4.5-3.2 0-5.5 1.4-5.6 4.7h1.6zm15.1-8.5h-1.7v4.2h-2.4v1.4h2.4v9.5c0 2.4.8 3.1 3 3.1.5 0 1-.1 1.5-.1V98c-.5.1-1 .1-1.5.1-1.2-.1-1.4-.7-1.4-1.8v-9.4h2.8v-1.4h-2.8v-4.3zm5.4 18.2h1.7v-14h-1.7zm0-16.6h1.7v-2.7h-1.7zM126 85c-4.3 0-6.6 3.4-6.6 7.4s2.3 7.4 6.6 7.4 6.6-3.4 6.6-7.4-2.3-7.4-6.6-7.4m0 1.5c3.3 0 4.9 3 4.9 5.9s-1.6 5.9-4.9 5.9-4.9-3-4.9-5.9 1.7-5.9 4.9-5.9m9.1 12.9h1.7v-8.1c.1-2.7 1.7-4.8 4.4-4.8 2.8 0 3.5 1.8 3.5 4.2v8.7h1.7v-9c0-3.3-1.2-5.4-5.1-5.4-2 0-3.8 1.1-4.5 2.8h-.1v-2.4H135v14zm38.3-13.5c-.5-4.1-4.1-6.2-7.7-6.2-6.1 0-9.1 4.8-9.1 10 0 5.3 3 10 9.1 10 4.5 0 7.5-3 8-7.7h-1.8c-.4 3.4-2.6 6.2-6.2 6.2-5.1 0-7.3-4.3-7.3-8.5s2.2-8.5 7.3-8.5c2.8 0 5.3 1.7 5.9 4.7zm14.5 7c.1-3.9-1.6-7.8-6.1-7.8-4.4 0-6.3 3.7-6.3 7.4 0 4 1.9 7.4 6.3 7.4 3.5 0 5.3-1.8 6.1-5h-1.7c-.5 2.1-1.9 3.6-4.4 3.6-3.3 0-4.6-3-4.6-5.5h10.7zm-10.7-1.5c.3-2.5 1.8-5 4.6-5s4.3 2.4 4.4 5zm12.9 8h1.7v-8.1c.1-2.7 1.7-4.8 4.4-4.8 2.8 0 3.5 1.8 3.5 4.2v8.7h1.7v-9c0-3.3-1.2-5.4-5.1-5.4-2 0-3.8 1.1-4.5 2.8h-.1v-2.4H190v14zm17.3-18.2h-1.7v4.2h-2.4v1.4h2.4v9.5c0 2.4.8 3.1 3 3.1.5 0 1-.1 1.5-.1V98c-.5.1-1 .1-1.5.1-1.2-.1-1.4-.7-1.4-1.8v-9.4h2.8v-1.4h-2.8v-4.3zm17 11.7c.1-3.9-1.6-7.8-6.1-7.8-4.4 0-6.3 3.7-6.3 7.4 0 4 1.9 7.4 6.3 7.4 3.5 0 5.3-1.8 6.1-5h-1.7c-.5 2.1-1.9 3.6-4.4 3.6-3.3 0-4.6-3-4.6-5.5h10.7zm-10.7-1.5c.3-2.5 1.8-5 4.6-5s4.3 2.4 4.4 5zm13 8h1.7V92c0-2.9 2.1-5.2 5.2-5v-1.7c-2.5-.1-4.4 1.2-5.3 3.5h-.1v-3.3h-1.6v13.9z"/></svg>