<?xml version="1.0" encoding="UTF-8"?><svg id="Layer_2" xmlns="http://www.w3.org/2000/svg" viewBox="0 0 1920 949.35"><defs><style>.cls-1{fill:#fff;}.cls-2{fill:#1295d8;}</style></defs><g id="Layer_1-2"><g id="Wordmark_Block_-_White_Text"><g><rect class="cls-2" y="328.12" width="517.86" height="293.1"/><rect class="cls-2" width="1920" height="293.09"/><rect class="cls-2" y="656.24" width="1920" height="293.1"/></g><g><path class="cls-1" d="m153.7,245.16c53.51,0,78.68-32.28,78.68-83.13V51.04h-29.66v113.62c0,34.51-14.84,53.8-47.85,53.8-34.93,0-50.2-16.34-50.2-57.19V51.04h-32.23v113.96c0,48.61,25.28,80.16,81.25,80.16Z"/><path class="cls-1" d="m439.84,168.71c0,14.52,1.55,29.34,1.55,29.34h-.79c-.31,0-8.83-16.32-19.65-31.55l-84.26-115.45h-32.28v190.79h29.6v-126.17c0-11.85-1.04-24.55-1.04-24.55h.33s8.17,15.25,17.13,28.27l89.4,122.45h28.99V51.04h-28.99v117.67Z"/><rect class="cls-1" x="544.51" y="51.04" width="31.89" height="190.79"/><path class="cls-1" d="m781.29,51.04l-46.38,125.11c-5.55,14.5-11.12,32.27-11.12,32.65h-.72c0-.38-5.63-18.56-11.17-32.65l-48.27-125.11h-33.73l77.18,190.79h31.21l73.82-190.79h-30.82Z"/><polygon class="cls-1" points="982.87 215.81 896.38 215.81 896.38 154.59 972.1 154.59 972.1 129.33 896.38 129.33 896.38 77 981.04 77 981.04 51.04 864.48 51.04 864.48 241.82 982.87 241.82 982.87 215.81"/><path class="cls-1" d="m1148.02,180.55c-11.48-15.9-18.56-23-22.68-25.96v-.69c28.64-3.03,52.36-17.51,52.36-50.1,0-34.62-25.58-52.77-70.15-52.77h-59.72v190.79h31.89v-83.13h3.33c11.51,0,15.96,2.2,34.87,28.56l38.65,54.56h36.75l-45.31-61.27Zm-41.18-45.59h-27.11v-59.08h25.23c27.52,0,40.06,9.32,40.06,29.31s-11.48,29.77-38.18,29.77Z"/><path class="cls-1" d="m1303.53,130.54c-20.8-9.33-36.76-14.88-36.76-33.05,0-16.33,13.37-24.16,31.54-24.16s33.42,7.42,40.47,12.23l13.72-22.63c-8.14-5.63-24.08-15.55-55.31-15.55-33.04,0-61.58,18.15-61.58,51.54,0,30.06,20.77,43.82,45.31,54.98,27.8,12.93,45.97,18.56,45.97,38.55,0,16.72-14.82,26.75-37.49,26.75-25.25,0-39.3-11.9-44.5-15.64l-14.13,22.7c7.77,7.06,27.16,18.9,59.03,18.9,41.16,0,67.89-20.73,67.89-54.14s-27.47-48.66-54.17-60.48Z"/><rect class="cls-1" x="1420.44" y="51.04" width="31.92" height="190.79"/><polygon class="cls-1" points="1506.18 77.43 1564.42 77.43 1564.42 241.82 1596.72 241.82 1596.72 77.43 1655.01 77.43 1655.01 51.04 1506.18 51.04 1506.18 77.43"/><polygon class="cls-1" points="1757.09 241.82 1788.96 241.82 1788.96 169.43 1853.94 51.04 1822.76 51.04 1774.52 141.66 1773.76 141.66 1724.78 51.04 1689.91 51.04 1757.09 169.43 1757.09 241.82"/><path class="cls-1" d="m162.61,875.01c-45.29,0-66.8-31.56-66.8-73.55s22.63-70.87,66.11-70.87c18.5,0,31.87,4.81,43.04,12.23l15.2-23.76c-14.89-9.63-31.94-15.17-57.55-15.17-64.58,0-100.93,45.61-100.93,98.73s34.9,99.12,99.83,99.12c28.97,0,51.22-10.42,61.65-19.34l-13.39-22.59c-11.12,8.1-25.61,15.21-47.17,15.21Z"/><path class="cls-1" d="m329.67,707.6l-76.9,190.76h31.61l15.58-41.53h88.71l16.34,41.53h33.4l-77.59-190.76h-31.16Zm-20.06,123.23l22.27-58.29c5.88-15.94,11.86-34.54,11.86-34.54h.71s5.6,17.83,11.91,34.54l22.61,58.29h-69.37Z"/><polygon class="cls-1" points="517.83 707.6 485.12 707.6 485.12 898.36 598.35 898.36 598.35 872.36 517.83 872.36 517.83 707.6"/><rect class="cls-1" x="652.87" y="707.6" width="31.97" height="190.76"/><polygon class="cls-1" points="755.69 898.36 787.63 898.36 787.63 813.32 860.74 813.32 860.74 787.76 787.63 787.76 787.63 733.54 870.38 733.54 870.38 707.6 755.69 707.6 755.69 898.36"/><path class="cls-1" d="m1012.17,703.88c-63.82,0-100.6,47.15-100.6,99.46s37.52,98.39,101.36,98.39,99.89-47.15,99.89-99.51-36.75-98.34-100.65-98.34Zm0,171.47c-44.09,0-66.46-33.81-66.46-73.13s23.04-72.34,67.23-72.34,66.06,34.08,66.06,73.46-22.63,72.01-66.82,72.01Z"/><path class="cls-1" d="m1238.16,811.13v-.79c28.61-2.96,52.39-17.4,52.39-50.05,0-34.52-25.61-52.69-70.1-52.69h-59.87v190.76h32v-83.21h3.33c11.46,0,15.91,2.33,34.87,28.66l38.64,54.55h36.73l-45.28-61.25c-11.53-15.91-18.56-23.02-22.71-25.99Zm-18.5-19.63h-27.08v-59.03h25.2c27.47,0,40.17,9.21,40.17,29.32s-11.53,29.7-38.28,29.7Z"/><path class="cls-1" d="m1488.36,825.25c0,14.49,1.47,29.32,1.47,29.32h-.73c-.31,0-8.91-16.34-19.63-31.54l-84.34-115.44h-32.3v190.76h29.73v-126.18c0-11.89-1.07-24.52-1.07-24.52h.33s8.17,15.18,17.06,28.29l89.48,122.41h28.94v-190.76h-28.94v117.65Z"/><rect class="cls-1" x="1587.78" y="707.6" width="31.95" height="190.76"/><path class="cls-1" d="m1776.74,707.6h-31.18l-76.8,190.76h31.51l15.58-41.53h88.73l16.34,41.53h33.4l-77.59-190.76Zm-51.24,123.23l22.3-58.29c5.93-15.94,11.81-34.54,11.81-34.54h.79s5.6,17.83,11.89,34.54l22.66,58.29h-69.44Z"/><path class="cls-1" d="m162.28,375.87c-63.87,0-100.6,47.16-100.6,99.48s37.5,98.41,101.31,98.41,99.89-47.22,99.89-99.53-36.76-98.35-100.6-98.35Zm0,171.54c-44.19,0-66.46-33.79-66.46-73.19s23.06-72.39,67.18-72.39,66.08,34.18,66.08,73.51-22.63,72.06-66.79,72.06Z"/><polygon class="cls-1" points="433.93 405.55 433.93 379.63 319.21 379.63 319.21 570.39 351.15 570.39 351.15 485.35 424.26 485.35 424.26 459.8 351.15 459.8 351.15 405.55 433.93 405.55"/></g></g></g></svg>